<svg width="24" height="24" viewBox="0 0 24 24" xmlns="http://www.w3.org/2000/svg"><title>Claude</title><path fill="#D97757" fill-rule="nonzero" d="M 4.709 15.955 L 9.429 13.308 L 9.509 13.078 L 9.429 12.95 L 9.2 12.95 L 8.41 12.902 L 5.712 12.829 L 3.373 12.732 L 1.107 12.61 L 0.536 12.489 L 0 11.784 L 0.055 11.432 L 0.535 11.111 L 1.221 11.171 L 2.741 11.274 L 5.019 11.432 L 6.671 11.529 L 9.12 11.784 L 9.509 11.784 L 9.564 11.627 L 9.43 11.529 L 9.327 11.432 L 6.969 9.836 L 4.417 8.148 L 3.081 7.176 L 2.357 6.685 L 1.993 6.223 L 1.835 5.215 L 2.491 4.493 L 3.372 4.553 L 3.597 4.614 L 4.49 5.3 L 6.398 6.776 L 8.889 8.609 L 9.254 8.913 L 9.399 8.81 L 9.418 8.737 L 9.254 8.463 L 7.899 6.017 L 6.453 3.527 L 5.809 2.495 L 5.639 1.876 C 5.5742 1.6383 5.5393 1.3934 5.535 1.147 L 6.283 0.134 L 6.696 0 L 7.692 0.134 L 8.112 0.498 L 8.732 1.912 L 9.734 4.141 L 11.289 7.171 L 11.745 8.069 L 11.988 8.901 L 12.079 9.156 L 12.237 9.156 L 12.237 9.01 L 12.365 7.304 L 12.602 5.209 L 12.832 2.514 L 12.912 1.754 L 13.288 0.844 L 14.035 0.352 L 14.619 0.632 L 15.099 1.317 L 15.032 1.761 L 14.746 3.612 L 14.187 6.515 L 13.823 8.457 L 14.035 8.457 L 14.278 8.215 L 15.263 6.909 L 16.915 4.845 L 17.645 4.025 L 18.495 3.121 L 19.042 2.69 L 20.075 2.69 L 20.835 3.819 L 20.495 4.985 L 19.431 6.332 L 18.55 7.474 L 17.286 9.174 L 16.496 10.534 L 16.569 10.644 L 16.757 10.624 L 19.613 10.018 L 21.156 9.738 L 22.997 9.423 L 23.83 9.811 L 23.921 10.206 L 23.593 11.013 L 21.624 11.499 L 19.315 11.961 L 15.876 12.774 L 15.834 12.804 L 15.883 12.865 L 17.432 13.011 L 18.094 13.047 L 19.716 13.047 L 22.736 13.272 L 23.526 13.794 L 24 14.432 L 23.921 14.917 L 22.706 15.537 L 21.066 15.148 L 17.237 14.238 L 15.925 13.909 L 15.743 13.909 L 15.743 14.019 L 16.836 15.087 L 18.842 16.897 L 21.351 19.227 L 21.478 19.805 L 21.156 20.26 L 20.816 20.211 L 18.611 18.554 L 17.76 17.807 L 15.834 16.187 L 15.706 16.187 L 15.706 16.357 L 16.15 17.006 L 18.495 20.527 L 18.617 21.607 L 18.447 21.96 L 17.839 22.173 L 17.171 22.051 L 15.797 20.126 L 14.382 17.959 L 13.239 16.016 L 13.099 16.096 L 12.425 23.35 L 12.109 23.72 L 11.38 24 L 10.773 23.539 L 10.451 22.792 L 10.773 21.316 L 11.162 19.392 L 11.477 17.862 L 11.763 15.962 L 11.933 15.33 L 11.921 15.288 L 11.781 15.306 L 10.347 17.273 L 8.167 20.218 L 6.441 22.063 L 6.027 22.227 L 5.31 21.857 L 5.377 21.195 L 5.778 20.606 L 8.166 17.57 L 9.606 15.688 L 10.536 14.602 L 10.53 14.444 L 10.475 14.444 L 4.132 18.56 L 3.002 18.706 L 2.515 18.25 L 2.576 17.504 L 2.807 17.261 L 4.715 15.949 L 4.709 15.955 Z"/></svg>